<mxfile host="app.diagrams.net" agent="Mozilla/5.0 (Windows NT 10.0; Win64; x64) AppleWebKit/537.36 (KHTML, like Gecko) Chrome/126.0.0.0 Safari/537.36 OPR/112.0.0.0" version="24.7.14">
  <diagram name="Page-1" id="e7e014a7-5840-1c2e-5031-d8a46d1fe8dd">
    <mxGraphModel dx="2322" dy="1258" grid="1" gridSize="10" guides="1" tooltips="1" connect="1" arrows="1" fold="1" page="1" pageScale="1" pageWidth="1169" pageHeight="826" background="none" math="0" shadow="0">
      <root>
        <mxCell id="0" />
        <mxCell id="1" parent="0" />
        <mxCell id="e4tIsMRB3juKGLobp1ze-86" value="" style="rounded=1;whiteSpace=wrap;html=1;fillColor=none;" vertex="1" parent="1">
          <mxGeometry x="280" y="130" width="660" height="840" as="geometry" />
        </mxCell>
        <mxCell id="e4tIsMRB3juKGLobp1ze-41" value="&lt;div style=&quot;&quot;&gt;&lt;br&gt;&lt;/div&gt;" style="shape=note;whiteSpace=wrap;html=1;backgroundOutline=1;darkOpacity=0.05;rotation=-90;flipH=0;flipV=1;textDirection=vertical-rl;align=center;" vertex="1" parent="1">
          <mxGeometry x="139.38" y="96.88" width="75" height="141.25" as="geometry" />
        </mxCell>
        <mxCell id="e4tIsMRB3juKGLobp1ze-42" value="" style="ellipse;html=1;shape=startState;fillColor=#000000;strokeColor=#ff0000;" vertex="1" parent="1">
          <mxGeometry x="360" y="260" width="40" height="40" as="geometry" />
        </mxCell>
        <mxCell id="e4tIsMRB3juKGLobp1ze-43" value="" style="edgeStyle=orthogonalEdgeStyle;html=1;verticalAlign=bottom;endArrow=open;endSize=8;strokeColor=#ff0000;rounded=0;entryX=0.5;entryY=1;entryDx=0;entryDy=0;" edge="1" source="e4tIsMRB3juKGLobp1ze-42" parent="1" target="e4tIsMRB3juKGLobp1ze-45">
          <mxGeometry relative="1" as="geometry">
            <mxPoint x="415" y="280" as="targetPoint" />
          </mxGeometry>
        </mxCell>
        <mxCell id="e4tIsMRB3juKGLobp1ze-87" style="edgeStyle=orthogonalEdgeStyle;rounded=0;orthogonalLoop=1;jettySize=auto;html=1;entryX=0;entryY=0.5;entryDx=0;entryDy=0;exitX=0;exitY=0;exitDx=22.5;exitDy=0;exitPerimeter=0;" edge="1" parent="1" source="e4tIsMRB3juKGLobp1ze-41" target="e4tIsMRB3juKGLobp1ze-45">
          <mxGeometry relative="1" as="geometry">
            <mxPoint x="290" y="100" as="targetPoint" />
          </mxGeometry>
        </mxCell>
        <mxCell id="e4tIsMRB3juKGLobp1ze-44" value="Cliente solicita comprar productos" style="text;html=1;align=center;verticalAlign=middle;whiteSpace=wrap;rounded=0;" vertex="1" parent="1">
          <mxGeometry x="120" y="160" width="110" height="30" as="geometry" />
        </mxCell>
        <mxCell id="e4tIsMRB3juKGLobp1ze-50" style="edgeStyle=orthogonalEdgeStyle;rounded=0;orthogonalLoop=1;jettySize=auto;html=1;exitX=1;exitY=0.5;exitDx=0;exitDy=0;entryX=0;entryY=0.5;entryDx=0;entryDy=0;strokeColor=#ff0000;align=left;verticalAlign=bottom;fontFamily=Helvetica;fontSize=11;fontColor=default;labelBackgroundColor=default;endArrow=open;endSize=8;" edge="1" parent="1" source="e4tIsMRB3juKGLobp1ze-45" target="e4tIsMRB3juKGLobp1ze-47">
          <mxGeometry relative="1" as="geometry" />
        </mxCell>
        <mxCell id="e4tIsMRB3juKGLobp1ze-45" value="Empleado registra los productos a comprar" style="rounded=1;whiteSpace=wrap;html=1;arcSize=40;fontColor=#000000;fillColor=#ffffc0;strokeColor=#ff0000;fontSize=11;" vertex="1" parent="1">
          <mxGeometry x="320" y="170" width="120" height="40" as="geometry" />
        </mxCell>
        <mxCell id="e4tIsMRB3juKGLobp1ze-47" value="&lt;font style=&quot;font-size: 10px;&quot;&gt;Productos disponibles&lt;/font&gt;" style="rhombus;whiteSpace=wrap;html=1;fontColor=#000000;fillColor=#ffffc0;strokeColor=#ff0000;" vertex="1" parent="1">
          <mxGeometry x="510" y="160" width="90" height="60" as="geometry" />
        </mxCell>
        <mxCell id="e4tIsMRB3juKGLobp1ze-48" value="no" style="edgeStyle=orthogonalEdgeStyle;html=1;align=left;verticalAlign=bottom;endArrow=open;endSize=8;strokeColor=#ff0000;rounded=0;entryX=0;entryY=0.5;entryDx=0;entryDy=0;" edge="1" source="e4tIsMRB3juKGLobp1ze-47" parent="1" target="e4tIsMRB3juKGLobp1ze-51">
          <mxGeometry x="-1" relative="1" as="geometry">
            <mxPoint x="690" y="200" as="targetPoint" />
          </mxGeometry>
        </mxCell>
        <mxCell id="e4tIsMRB3juKGLobp1ze-49" value="yes" style="edgeStyle=orthogonalEdgeStyle;html=1;align=left;verticalAlign=top;endArrow=open;endSize=8;strokeColor=#ff0000;rounded=0;entryX=0.5;entryY=0;entryDx=0;entryDy=0;" edge="1" source="e4tIsMRB3juKGLobp1ze-47" parent="1" target="e4tIsMRB3juKGLobp1ze-55">
          <mxGeometry x="-1" relative="1" as="geometry">
            <mxPoint x="550" y="280" as="targetPoint" />
          </mxGeometry>
        </mxCell>
        <mxCell id="e4tIsMRB3juKGLobp1ze-54" style="edgeStyle=orthogonalEdgeStyle;rounded=0;orthogonalLoop=1;jettySize=auto;html=1;exitX=1;exitY=0.5;exitDx=0;exitDy=0;strokeColor=#ff0000;align=left;verticalAlign=bottom;fontFamily=Helvetica;fontSize=11;fontColor=default;labelBackgroundColor=default;endArrow=open;endSize=8;" edge="1" parent="1" source="e4tIsMRB3juKGLobp1ze-51" target="e4tIsMRB3juKGLobp1ze-53">
          <mxGeometry relative="1" as="geometry" />
        </mxCell>
        <mxCell id="e4tIsMRB3juKGLobp1ze-51" value="Notificar falta de stock a empleado" style="rounded=1;whiteSpace=wrap;html=1;arcSize=40;fontColor=#000000;fillColor=#ffffc0;strokeColor=#ff0000;" vertex="1" parent="1">
          <mxGeometry x="700" y="170" width="120" height="40" as="geometry" />
        </mxCell>
        <mxCell id="e4tIsMRB3juKGLobp1ze-53" value="" style="ellipse;html=1;shape=endState;fillColor=#000000;strokeColor=#ff0000;" vertex="1" parent="1">
          <mxGeometry x="880" y="175" width="30" height="30" as="geometry" />
        </mxCell>
        <mxCell id="e4tIsMRB3juKGLobp1ze-61" style="edgeStyle=orthogonalEdgeStyle;rounded=0;orthogonalLoop=1;jettySize=auto;html=1;exitX=0.5;exitY=1;exitDx=0;exitDy=0;entryX=0.5;entryY=0;entryDx=0;entryDy=0;strokeColor=#ff0000;align=left;verticalAlign=bottom;fontFamily=Helvetica;fontSize=11;fontColor=default;labelBackgroundColor=default;endArrow=open;endSize=8;" edge="1" parent="1" source="e4tIsMRB3juKGLobp1ze-55" target="e4tIsMRB3juKGLobp1ze-58">
          <mxGeometry relative="1" as="geometry" />
        </mxCell>
        <mxCell id="e4tIsMRB3juKGLobp1ze-55" value="Empleado confirma con el cliente la compra" style="rounded=1;whiteSpace=wrap;html=1;arcSize=40;fontColor=#000000;fillColor=#ffffc0;strokeColor=#ff0000;fontSize=11;" vertex="1" parent="1">
          <mxGeometry x="495" y="280" width="120" height="40" as="geometry" />
        </mxCell>
        <mxCell id="e4tIsMRB3juKGLobp1ze-58" value="&lt;font style=&quot;font-size: 10px;&quot;&gt;Cliente confirma&lt;/font&gt;" style="rhombus;whiteSpace=wrap;html=1;fontColor=#000000;fillColor=#ffffc0;strokeColor=#ff0000;" vertex="1" parent="1">
          <mxGeometry x="510" y="353" width="90" height="60" as="geometry" />
        </mxCell>
        <mxCell id="e4tIsMRB3juKGLobp1ze-59" value="no" style="edgeStyle=orthogonalEdgeStyle;html=1;align=left;verticalAlign=bottom;endArrow=open;endSize=8;strokeColor=#ff0000;rounded=0;entryX=0;entryY=0.5;entryDx=0;entryDy=0;" edge="1" parent="1" source="e4tIsMRB3juKGLobp1ze-58" target="e4tIsMRB3juKGLobp1ze-62">
          <mxGeometry x="-1" relative="1" as="geometry">
            <mxPoint x="700" y="383" as="targetPoint" />
          </mxGeometry>
        </mxCell>
        <mxCell id="e4tIsMRB3juKGLobp1ze-60" value="yes" style="edgeStyle=orthogonalEdgeStyle;html=1;align=left;verticalAlign=top;endArrow=open;endSize=8;strokeColor=#ff0000;rounded=0;entryX=0.5;entryY=0;entryDx=0;entryDy=0;" edge="1" parent="1" source="e4tIsMRB3juKGLobp1ze-58" target="e4tIsMRB3juKGLobp1ze-63">
          <mxGeometry x="-1" relative="1" as="geometry">
            <mxPoint x="555" y="473" as="targetPoint" />
          </mxGeometry>
        </mxCell>
        <mxCell id="e4tIsMRB3juKGLobp1ze-62" value="" style="ellipse;html=1;shape=endState;fillColor=#000000;strokeColor=#ff0000;" vertex="1" parent="1">
          <mxGeometry x="700" y="368" width="30" height="30" as="geometry" />
        </mxCell>
        <mxCell id="e4tIsMRB3juKGLobp1ze-63" value="Cliente paga compra" style="rounded=1;whiteSpace=wrap;html=1;arcSize=40;fontColor=#000000;fillColor=#ffffc0;strokeColor=#ff0000;" vertex="1" parent="1">
          <mxGeometry x="495" y="470" width="120" height="40" as="geometry" />
        </mxCell>
        <mxCell id="e4tIsMRB3juKGLobp1ze-65" value="Sistema actualiza inventario" style="rounded=1;whiteSpace=wrap;html=1;arcSize=40;fontColor=#000000;fillColor=#ffffc0;strokeColor=#ff0000;" vertex="1" parent="1">
          <mxGeometry x="500" y="660" width="120" height="40" as="geometry" />
        </mxCell>
        <mxCell id="e4tIsMRB3juKGLobp1ze-66" value="Sistema actualiza ventas" style="rounded=1;whiteSpace=wrap;html=1;arcSize=40;fontColor=#000000;fillColor=#ffffc0;strokeColor=#ff0000;" vertex="1" parent="1">
          <mxGeometry x="657.5" y="660" width="120" height="40" as="geometry" />
        </mxCell>
        <mxCell id="e4tIsMRB3juKGLobp1ze-67" value="Sistema actualiza dinero en caja" style="rounded=1;whiteSpace=wrap;html=1;arcSize=40;fontColor=#000000;fillColor=#ffffc0;strokeColor=#ff0000;" vertex="1" parent="1">
          <mxGeometry x="340" y="660" width="120" height="40" as="geometry" />
        </mxCell>
        <mxCell id="e4tIsMRB3juKGLobp1ze-72" style="edgeStyle=orthogonalEdgeStyle;rounded=0;orthogonalLoop=1;jettySize=auto;html=1;exitX=0.5;exitY=1;exitDx=0;exitDy=0;entryX=0.5;entryY=0;entryDx=0;entryDy=0;strokeColor=#ff0000;align=left;verticalAlign=bottom;fontFamily=Helvetica;fontSize=11;fontColor=default;labelBackgroundColor=default;endArrow=open;endSize=8;" edge="1" parent="1" source="e4tIsMRB3juKGLobp1ze-68" target="e4tIsMRB3juKGLobp1ze-70">
          <mxGeometry relative="1" as="geometry" />
        </mxCell>
        <mxCell id="e4tIsMRB3juKGLobp1ze-68" value="Emitir recibo" style="rounded=1;whiteSpace=wrap;html=1;arcSize=40;fontColor=#000000;fillColor=#ffffc0;strokeColor=#ff0000;" vertex="1" parent="1">
          <mxGeometry x="500" y="830" width="120" height="40" as="geometry" />
        </mxCell>
        <mxCell id="e4tIsMRB3juKGLobp1ze-70" value="" style="ellipse;html=1;shape=endState;fillColor=#000000;strokeColor=#ff0000;" vertex="1" parent="1">
          <mxGeometry x="545" y="930" width="30" height="30" as="geometry" />
        </mxCell>
        <mxCell id="e4tIsMRB3juKGLobp1ze-77" style="edgeStyle=orthogonalEdgeStyle;rounded=0;orthogonalLoop=1;jettySize=auto;html=1;exitX=1;exitY=0.5;exitDx=0;exitDy=0;exitPerimeter=0;entryX=0.5;entryY=0;entryDx=0;entryDy=0;strokeColor=#ff0000;align=left;verticalAlign=bottom;fontFamily=Helvetica;fontSize=11;fontColor=default;labelBackgroundColor=default;endArrow=open;endSize=8;" edge="1" parent="1" source="e4tIsMRB3juKGLobp1ze-73" target="e4tIsMRB3juKGLobp1ze-66">
          <mxGeometry relative="1" as="geometry">
            <Array as="points">
              <mxPoint x="718" y="575" />
              <mxPoint x="718" y="620" />
            </Array>
          </mxGeometry>
        </mxCell>
        <mxCell id="e4tIsMRB3juKGLobp1ze-78" style="edgeStyle=orthogonalEdgeStyle;rounded=0;orthogonalLoop=1;jettySize=auto;html=1;exitX=0;exitY=0.5;exitDx=0;exitDy=0;exitPerimeter=0;entryX=0.5;entryY=0;entryDx=0;entryDy=0;strokeColor=#ff0000;align=left;verticalAlign=bottom;fontFamily=Helvetica;fontSize=11;fontColor=default;labelBackgroundColor=default;endArrow=open;endSize=8;" edge="1" parent="1" source="e4tIsMRB3juKGLobp1ze-73" target="e4tIsMRB3juKGLobp1ze-67">
          <mxGeometry relative="1" as="geometry">
            <Array as="points">
              <mxPoint x="400" y="660" />
            </Array>
          </mxGeometry>
        </mxCell>
        <mxCell id="e4tIsMRB3juKGLobp1ze-73" value="" style="shape=line;html=1;strokeWidth=6;strokeColor=#ff0000;" vertex="1" parent="1">
          <mxGeometry x="400" y="570" width="320" height="10" as="geometry" />
        </mxCell>
        <mxCell id="e4tIsMRB3juKGLobp1ze-74" value="" style="edgeStyle=orthogonalEdgeStyle;html=1;verticalAlign=bottom;endArrow=open;endSize=8;strokeColor=#ff0000;rounded=0;entryX=0.5;entryY=0;entryDx=0;entryDy=0;exitX=0.499;exitY=0.577;exitDx=0;exitDy=0;exitPerimeter=0;" edge="1" source="e4tIsMRB3juKGLobp1ze-73" parent="1" target="e4tIsMRB3juKGLobp1ze-65">
          <mxGeometry relative="1" as="geometry">
            <mxPoint x="560" y="600" as="targetPoint" />
          </mxGeometry>
        </mxCell>
        <mxCell id="e4tIsMRB3juKGLobp1ze-76" style="edgeStyle=orthogonalEdgeStyle;rounded=0;orthogonalLoop=1;jettySize=auto;html=1;exitX=0.5;exitY=1;exitDx=0;exitDy=0;entryX=0.485;entryY=0.216;entryDx=0;entryDy=0;entryPerimeter=0;strokeColor=#ff0000;align=left;verticalAlign=bottom;fontFamily=Helvetica;fontSize=11;fontColor=default;labelBackgroundColor=default;endArrow=open;endSize=8;" edge="1" parent="1" source="e4tIsMRB3juKGLobp1ze-63" target="e4tIsMRB3juKGLobp1ze-73">
          <mxGeometry relative="1" as="geometry" />
        </mxCell>
        <mxCell id="e4tIsMRB3juKGLobp1ze-80" style="edgeStyle=orthogonalEdgeStyle;rounded=0;orthogonalLoop=1;jettySize=auto;html=1;exitX=0.5;exitY=1;exitDx=0;exitDy=0;entryX=0.01;entryY=0.333;entryDx=0;entryDy=0;strokeColor=#ff0000;align=left;verticalAlign=bottom;fontFamily=Helvetica;fontSize=11;fontColor=default;labelBackgroundColor=default;endArrow=open;endSize=8;entryPerimeter=0;" edge="1" parent="1" source="e4tIsMRB3juKGLobp1ze-67" target="e4tIsMRB3juKGLobp1ze-81">
          <mxGeometry relative="1" as="geometry">
            <mxPoint x="400" y="850" as="targetPoint" />
            <Array as="points">
              <mxPoint x="398" y="700" />
              <mxPoint x="398" y="730" />
            </Array>
          </mxGeometry>
        </mxCell>
        <mxCell id="e4tIsMRB3juKGLobp1ze-81" value="" style="shape=line;html=1;strokeWidth=6;strokeColor=#ff0000;" vertex="1" parent="1">
          <mxGeometry x="395" y="760" width="320" height="10" as="geometry" />
        </mxCell>
        <mxCell id="e4tIsMRB3juKGLobp1ze-82" value="" style="edgeStyle=orthogonalEdgeStyle;html=1;verticalAlign=bottom;endArrow=open;endSize=8;strokeColor=#ff0000;rounded=0;entryX=0.5;entryY=0;entryDx=0;entryDy=0;exitX=0.514;exitY=0.68;exitDx=0;exitDy=0;exitPerimeter=0;" edge="1" parent="1" source="e4tIsMRB3juKGLobp1ze-81" target="e4tIsMRB3juKGLobp1ze-68">
          <mxGeometry relative="1" as="geometry">
            <mxPoint x="560" y="850" as="targetPoint" />
          </mxGeometry>
        </mxCell>
        <mxCell id="e4tIsMRB3juKGLobp1ze-84" style="edgeStyle=orthogonalEdgeStyle;rounded=0;orthogonalLoop=1;jettySize=auto;html=1;exitX=0.5;exitY=1;exitDx=0;exitDy=0;entryX=0.513;entryY=0.222;entryDx=0;entryDy=0;entryPerimeter=0;strokeColor=#ff0000;align=left;verticalAlign=bottom;fontFamily=Helvetica;fontSize=11;fontColor=default;labelBackgroundColor=default;endArrow=open;endSize=8;" edge="1" parent="1" source="e4tIsMRB3juKGLobp1ze-65" target="e4tIsMRB3juKGLobp1ze-81">
          <mxGeometry relative="1" as="geometry" />
        </mxCell>
        <mxCell id="e4tIsMRB3juKGLobp1ze-85" style="edgeStyle=orthogonalEdgeStyle;rounded=0;orthogonalLoop=1;jettySize=auto;html=1;exitX=0.5;exitY=1;exitDx=0;exitDy=0;entryX=0.995;entryY=0.194;entryDx=0;entryDy=0;entryPerimeter=0;strokeColor=#ff0000;align=left;verticalAlign=bottom;fontFamily=Helvetica;fontSize=11;fontColor=default;labelBackgroundColor=default;endArrow=open;endSize=8;" edge="1" parent="1" source="e4tIsMRB3juKGLobp1ze-66" target="e4tIsMRB3juKGLobp1ze-81">
          <mxGeometry relative="1" as="geometry">
            <Array as="points">
              <mxPoint x="713" y="700" />
              <mxPoint x="713" y="730" />
              <mxPoint x="713" y="730" />
            </Array>
          </mxGeometry>
        </mxCell>
        <mxCell id="e4tIsMRB3juKGLobp1ze-88" value="Diagrama de Actividades&lt;div&gt;Registro de Venta&lt;/div&gt;&lt;div&gt;Sistema Punto de Venta LiebreShop&lt;/div&gt;" style="text;html=1;align=center;verticalAlign=middle;whiteSpace=wrap;rounded=0;fontStyle=1" vertex="1" parent="1">
          <mxGeometry x="470" y="80" width="215" height="30" as="geometry" />
        </mxCell>
        <mxCell id="e4tIsMRB3juKGLobp1ze-89" value="" style="rounded=1;whiteSpace=wrap;html=1;fillColor=none;" vertex="1" parent="1">
          <mxGeometry x="310" y="1210" width="680" height="1030" as="geometry" />
        </mxCell>
        <mxCell id="e4tIsMRB3juKGLobp1ze-90" value="&lt;div style=&quot;&quot;&gt;&lt;br&gt;&lt;/div&gt;" style="shape=note;whiteSpace=wrap;html=1;backgroundOutline=1;darkOpacity=0.05;rotation=-90;flipH=0;flipV=1;textDirection=vertical-rl;align=center;" vertex="1" parent="1">
          <mxGeometry x="186.88" y="1166.88" width="75" height="141.25" as="geometry" />
        </mxCell>
        <mxCell id="e4tIsMRB3juKGLobp1ze-91" value="" style="ellipse;html=1;shape=startState;fillColor=#000000;strokeColor=#ff0000;" vertex="1" parent="1">
          <mxGeometry x="407.5" y="1330" width="40" height="40" as="geometry" />
        </mxCell>
        <mxCell id="e4tIsMRB3juKGLobp1ze-92" value="" style="edgeStyle=orthogonalEdgeStyle;html=1;verticalAlign=bottom;endArrow=open;endSize=8;strokeColor=#ff0000;rounded=0;entryX=0.5;entryY=1;entryDx=0;entryDy=0;" edge="1" parent="1" source="e4tIsMRB3juKGLobp1ze-91" target="e4tIsMRB3juKGLobp1ze-96">
          <mxGeometry relative="1" as="geometry">
            <mxPoint x="462.5" y="1350" as="targetPoint" />
          </mxGeometry>
        </mxCell>
        <mxCell id="e4tIsMRB3juKGLobp1ze-93" style="edgeStyle=orthogonalEdgeStyle;rounded=0;orthogonalLoop=1;jettySize=auto;html=1;entryX=0;entryY=0.5;entryDx=0;entryDy=0;exitX=0;exitY=0;exitDx=22.5;exitDy=0;exitPerimeter=0;" edge="1" parent="1" source="e4tIsMRB3juKGLobp1ze-90" target="e4tIsMRB3juKGLobp1ze-96">
          <mxGeometry relative="1" as="geometry">
            <mxPoint x="337.5" y="1170" as="targetPoint" />
          </mxGeometry>
        </mxCell>
        <mxCell id="e4tIsMRB3juKGLobp1ze-94" value="Cliente solicita devolución productos" style="text;html=1;align=center;verticalAlign=middle;whiteSpace=wrap;rounded=0;" vertex="1" parent="1">
          <mxGeometry x="167.5" y="1230" width="110" height="30" as="geometry" />
        </mxCell>
        <mxCell id="e4tIsMRB3juKGLobp1ze-95" style="edgeStyle=orthogonalEdgeStyle;rounded=0;orthogonalLoop=1;jettySize=auto;html=1;exitX=1;exitY=0.5;exitDx=0;exitDy=0;entryX=0;entryY=0.5;entryDx=0;entryDy=0;strokeColor=#ff0000;align=left;verticalAlign=bottom;fontFamily=Helvetica;fontSize=11;fontColor=default;labelBackgroundColor=default;endArrow=open;endSize=8;" edge="1" parent="1" source="e4tIsMRB3juKGLobp1ze-96" target="e4tIsMRB3juKGLobp1ze-97">
          <mxGeometry relative="1" as="geometry" />
        </mxCell>
        <mxCell id="e4tIsMRB3juKGLobp1ze-96" value="Empleado busca venta en sistema" style="rounded=1;whiteSpace=wrap;html=1;arcSize=40;fontColor=#000000;fillColor=#ffffc0;strokeColor=#ff0000;fontSize=11;" vertex="1" parent="1">
          <mxGeometry x="367.5" y="1240" width="120" height="40" as="geometry" />
        </mxCell>
        <mxCell id="e4tIsMRB3juKGLobp1ze-97" value="&lt;font style=&quot;font-size: 11px;&quot;&gt;¿La venta se realizó?&lt;/font&gt;" style="rhombus;whiteSpace=wrap;html=1;fontColor=#000000;fillColor=#ffffc0;strokeColor=#ff0000;fontSize=11;" vertex="1" parent="1">
          <mxGeometry x="557.5" y="1230" width="90" height="60" as="geometry" />
        </mxCell>
        <mxCell id="e4tIsMRB3juKGLobp1ze-98" value="no" style="edgeStyle=orthogonalEdgeStyle;html=1;align=left;verticalAlign=bottom;endArrow=open;endSize=8;strokeColor=#ff0000;rounded=0;entryX=0;entryY=0.5;entryDx=0;entryDy=0;" edge="1" parent="1" source="e4tIsMRB3juKGLobp1ze-97" target="e4tIsMRB3juKGLobp1ze-101">
          <mxGeometry x="-1" relative="1" as="geometry">
            <mxPoint x="737.5" y="1270" as="targetPoint" />
          </mxGeometry>
        </mxCell>
        <mxCell id="e4tIsMRB3juKGLobp1ze-99" value="yes" style="edgeStyle=orthogonalEdgeStyle;html=1;align=left;verticalAlign=top;endArrow=open;endSize=8;strokeColor=#ff0000;rounded=0;entryX=0.5;entryY=0;entryDx=0;entryDy=0;" edge="1" parent="1" source="e4tIsMRB3juKGLobp1ze-97" target="e4tIsMRB3juKGLobp1ze-104">
          <mxGeometry x="-1" relative="1" as="geometry">
            <mxPoint x="597.5" y="1350" as="targetPoint" />
          </mxGeometry>
        </mxCell>
        <mxCell id="e4tIsMRB3juKGLobp1ze-100" style="edgeStyle=orthogonalEdgeStyle;rounded=0;orthogonalLoop=1;jettySize=auto;html=1;exitX=1;exitY=0.5;exitDx=0;exitDy=0;strokeColor=#ff0000;align=left;verticalAlign=bottom;fontFamily=Helvetica;fontSize=11;fontColor=default;labelBackgroundColor=default;endArrow=open;endSize=8;" edge="1" parent="1" source="e4tIsMRB3juKGLobp1ze-101" target="e4tIsMRB3juKGLobp1ze-102">
          <mxGeometry relative="1" as="geometry" />
        </mxCell>
        <mxCell id="e4tIsMRB3juKGLobp1ze-101" value="Notificar venta no realizada en establecimiento" style="rounded=1;whiteSpace=wrap;html=1;arcSize=40;fontColor=#000000;fillColor=#ffffc0;strokeColor=#ff0000;fontSize=10;" vertex="1" parent="1">
          <mxGeometry x="747.5" y="1240" width="120" height="40" as="geometry" />
        </mxCell>
        <mxCell id="e4tIsMRB3juKGLobp1ze-102" value="" style="ellipse;html=1;shape=endState;fillColor=#000000;strokeColor=#ff0000;" vertex="1" parent="1">
          <mxGeometry x="927.5" y="1245" width="30" height="30" as="geometry" />
        </mxCell>
        <mxCell id="e4tIsMRB3juKGLobp1ze-103" style="edgeStyle=orthogonalEdgeStyle;rounded=0;orthogonalLoop=1;jettySize=auto;html=1;exitX=0.5;exitY=1;exitDx=0;exitDy=0;entryX=0.5;entryY=0;entryDx=0;entryDy=0;strokeColor=#ff0000;align=left;verticalAlign=bottom;fontFamily=Helvetica;fontSize=11;fontColor=default;labelBackgroundColor=default;endArrow=open;endSize=8;" edge="1" parent="1" source="e4tIsMRB3juKGLobp1ze-104" target="e4tIsMRB3juKGLobp1ze-105">
          <mxGeometry relative="1" as="geometry" />
        </mxCell>
        <mxCell id="e4tIsMRB3juKGLobp1ze-104" value="Empleado confirma venta realizada dentro del plazo para devolución" style="rounded=1;whiteSpace=wrap;html=1;arcSize=40;fontColor=#000000;fillColor=#ffffc0;strokeColor=#ff0000;fontSize=10;" vertex="1" parent="1">
          <mxGeometry x="542.5" y="1350" width="120" height="40" as="geometry" />
        </mxCell>
        <mxCell id="e4tIsMRB3juKGLobp1ze-105" value="&lt;font style=&quot;font-size: 10px;&quot;&gt;¿Esta dentro del plazo?&lt;/font&gt;" style="rhombus;whiteSpace=wrap;html=1;fontColor=#000000;fillColor=#ffffc0;strokeColor=#ff0000;fontSize=10;" vertex="1" parent="1">
          <mxGeometry x="557.5" y="1423" width="90" height="60" as="geometry" />
        </mxCell>
        <mxCell id="e4tIsMRB3juKGLobp1ze-106" value="no" style="edgeStyle=orthogonalEdgeStyle;html=1;align=left;verticalAlign=bottom;endArrow=open;endSize=8;strokeColor=#ff0000;rounded=0;entryX=0;entryY=0.5;entryDx=0;entryDy=0;" edge="1" parent="1" source="e4tIsMRB3juKGLobp1ze-105" target="e4tIsMRB3juKGLobp1ze-108">
          <mxGeometry x="-1" relative="1" as="geometry">
            <mxPoint x="747.5" y="1453" as="targetPoint" />
          </mxGeometry>
        </mxCell>
        <mxCell id="e4tIsMRB3juKGLobp1ze-107" value="yes" style="edgeStyle=orthogonalEdgeStyle;html=1;align=left;verticalAlign=top;endArrow=open;endSize=8;strokeColor=#ff0000;rounded=0;entryX=0.5;entryY=0;entryDx=0;entryDy=0;" edge="1" parent="1" source="e4tIsMRB3juKGLobp1ze-105" target="e4tIsMRB3juKGLobp1ze-109">
          <mxGeometry x="-1" relative="1" as="geometry">
            <mxPoint x="602.5" y="1543" as="targetPoint" />
          </mxGeometry>
        </mxCell>
        <mxCell id="e4tIsMRB3juKGLobp1ze-108" value="" style="ellipse;html=1;shape=endState;fillColor=#000000;strokeColor=#ff0000;" vertex="1" parent="1">
          <mxGeometry x="747.5" y="1438" width="30" height="30" as="geometry" />
        </mxCell>
        <mxCell id="e4tIsMRB3juKGLobp1ze-109" value="Empleado pide permisos de admin para devolución" style="rounded=1;whiteSpace=wrap;html=1;arcSize=40;fontColor=#000000;fillColor=#ffffc0;strokeColor=#ff0000;" vertex="1" parent="1">
          <mxGeometry x="542.5" y="1540" width="120" height="40" as="geometry" />
        </mxCell>
        <mxCell id="e4tIsMRB3juKGLobp1ze-110" value="Sistema actualiza inventario" style="rounded=1;whiteSpace=wrap;html=1;arcSize=40;fontColor=#000000;fillColor=#ffffc0;strokeColor=#ff0000;" vertex="1" parent="1">
          <mxGeometry x="542.5" y="1910" width="120" height="40" as="geometry" />
        </mxCell>
        <mxCell id="e4tIsMRB3juKGLobp1ze-111" value="Sistema actualiza ventas" style="rounded=1;whiteSpace=wrap;html=1;arcSize=40;fontColor=#000000;fillColor=#ffffc0;strokeColor=#ff0000;" vertex="1" parent="1">
          <mxGeometry x="700" y="1910" width="120" height="40" as="geometry" />
        </mxCell>
        <mxCell id="e4tIsMRB3juKGLobp1ze-112" value="Sistema actualiza dinero en caja" style="rounded=1;whiteSpace=wrap;html=1;arcSize=40;fontColor=#000000;fillColor=#ffffc0;strokeColor=#ff0000;" vertex="1" parent="1">
          <mxGeometry x="380" y="1910" width="120" height="40" as="geometry" />
        </mxCell>
        <mxCell id="e4tIsMRB3juKGLobp1ze-113" style="edgeStyle=orthogonalEdgeStyle;rounded=0;orthogonalLoop=1;jettySize=auto;html=1;exitX=0.5;exitY=1;exitDx=0;exitDy=0;entryX=0.5;entryY=0;entryDx=0;entryDy=0;strokeColor=#ff0000;align=left;verticalAlign=bottom;fontFamily=Helvetica;fontSize=11;fontColor=default;labelBackgroundColor=default;endArrow=open;endSize=8;" edge="1" parent="1" source="e4tIsMRB3juKGLobp1ze-114" target="e4tIsMRB3juKGLobp1ze-115">
          <mxGeometry relative="1" as="geometry" />
        </mxCell>
        <mxCell id="e4tIsMRB3juKGLobp1ze-114" value="Emitir recibo de devolución" style="rounded=1;whiteSpace=wrap;html=1;arcSize=40;fontColor=#000000;fillColor=#ffffc0;strokeColor=#ff0000;" vertex="1" parent="1">
          <mxGeometry x="542.5" y="2080" width="120" height="40" as="geometry" />
        </mxCell>
        <mxCell id="e4tIsMRB3juKGLobp1ze-115" value="" style="ellipse;html=1;shape=endState;fillColor=#000000;strokeColor=#ff0000;" vertex="1" parent="1">
          <mxGeometry x="587.5" y="2180" width="30" height="30" as="geometry" />
        </mxCell>
        <mxCell id="e4tIsMRB3juKGLobp1ze-116" style="edgeStyle=orthogonalEdgeStyle;rounded=0;orthogonalLoop=1;jettySize=auto;html=1;exitX=1;exitY=0.5;exitDx=0;exitDy=0;exitPerimeter=0;entryX=0.5;entryY=0;entryDx=0;entryDy=0;strokeColor=#ff0000;align=left;verticalAlign=bottom;fontFamily=Helvetica;fontSize=11;fontColor=default;labelBackgroundColor=default;endArrow=open;endSize=8;" edge="1" parent="1" source="e4tIsMRB3juKGLobp1ze-118" target="e4tIsMRB3juKGLobp1ze-111">
          <mxGeometry relative="1" as="geometry">
            <Array as="points">
              <mxPoint x="760.5" y="1825" />
              <mxPoint x="760.5" y="1870" />
            </Array>
          </mxGeometry>
        </mxCell>
        <mxCell id="e4tIsMRB3juKGLobp1ze-117" style="edgeStyle=orthogonalEdgeStyle;rounded=0;orthogonalLoop=1;jettySize=auto;html=1;exitX=0;exitY=0.5;exitDx=0;exitDy=0;exitPerimeter=0;entryX=0.5;entryY=0;entryDx=0;entryDy=0;strokeColor=#ff0000;align=left;verticalAlign=bottom;fontFamily=Helvetica;fontSize=11;fontColor=default;labelBackgroundColor=default;endArrow=open;endSize=8;" edge="1" parent="1" source="e4tIsMRB3juKGLobp1ze-118">
          <mxGeometry relative="1" as="geometry">
            <Array as="points">
              <mxPoint x="442.5" y="1910" />
            </Array>
            <mxPoint x="442.5" y="1910" as="targetPoint" />
          </mxGeometry>
        </mxCell>
        <mxCell id="e4tIsMRB3juKGLobp1ze-118" value="" style="shape=line;html=1;strokeWidth=6;strokeColor=#ff0000;" vertex="1" parent="1">
          <mxGeometry x="442.5" y="1820" width="320" height="10" as="geometry" />
        </mxCell>
        <mxCell id="e4tIsMRB3juKGLobp1ze-119" value="" style="edgeStyle=orthogonalEdgeStyle;html=1;verticalAlign=bottom;endArrow=open;endSize=8;strokeColor=#ff0000;rounded=0;entryX=0.5;entryY=0;entryDx=0;entryDy=0;exitX=0.499;exitY=0.577;exitDx=0;exitDy=0;exitPerimeter=0;" edge="1" parent="1" source="e4tIsMRB3juKGLobp1ze-118" target="e4tIsMRB3juKGLobp1ze-110">
          <mxGeometry relative="1" as="geometry">
            <mxPoint x="602.5" y="1850" as="targetPoint" />
          </mxGeometry>
        </mxCell>
        <mxCell id="e4tIsMRB3juKGLobp1ze-120" style="edgeStyle=orthogonalEdgeStyle;rounded=0;orthogonalLoop=1;jettySize=auto;html=1;exitX=0.5;exitY=1;exitDx=0;exitDy=0;entryX=0.5;entryY=0;entryDx=0;entryDy=0;strokeColor=#ff0000;align=left;verticalAlign=bottom;fontFamily=Helvetica;fontSize=11;fontColor=default;labelBackgroundColor=default;endArrow=open;endSize=8;" edge="1" parent="1" source="e4tIsMRB3juKGLobp1ze-109" target="e4tIsMRB3juKGLobp1ze-127">
          <mxGeometry relative="1" as="geometry" />
        </mxCell>
        <mxCell id="e4tIsMRB3juKGLobp1ze-121" style="edgeStyle=orthogonalEdgeStyle;rounded=0;orthogonalLoop=1;jettySize=auto;html=1;exitX=0.5;exitY=1;exitDx=0;exitDy=0;entryX=0.01;entryY=0.333;entryDx=0;entryDy=0;strokeColor=#ff0000;align=left;verticalAlign=bottom;fontFamily=Helvetica;fontSize=11;fontColor=default;labelBackgroundColor=default;endArrow=open;endSize=8;entryPerimeter=0;" edge="1" parent="1" target="e4tIsMRB3juKGLobp1ze-122">
          <mxGeometry relative="1" as="geometry">
            <mxPoint x="442.5" y="2100" as="targetPoint" />
            <Array as="points">
              <mxPoint x="440.5" y="1950" />
              <mxPoint x="440.5" y="1980" />
            </Array>
            <mxPoint x="442.5" y="1950" as="sourcePoint" />
          </mxGeometry>
        </mxCell>
        <mxCell id="e4tIsMRB3juKGLobp1ze-122" value="" style="shape=line;html=1;strokeWidth=6;strokeColor=#ff0000;" vertex="1" parent="1">
          <mxGeometry x="437.5" y="2010" width="320" height="10" as="geometry" />
        </mxCell>
        <mxCell id="e4tIsMRB3juKGLobp1ze-123" value="" style="edgeStyle=orthogonalEdgeStyle;html=1;verticalAlign=bottom;endArrow=open;endSize=8;strokeColor=#ff0000;rounded=0;entryX=0.5;entryY=0;entryDx=0;entryDy=0;exitX=0.514;exitY=0.68;exitDx=0;exitDy=0;exitPerimeter=0;" edge="1" parent="1" source="e4tIsMRB3juKGLobp1ze-122" target="e4tIsMRB3juKGLobp1ze-114">
          <mxGeometry relative="1" as="geometry">
            <mxPoint x="602.5" y="2100" as="targetPoint" />
          </mxGeometry>
        </mxCell>
        <mxCell id="e4tIsMRB3juKGLobp1ze-124" style="edgeStyle=orthogonalEdgeStyle;rounded=0;orthogonalLoop=1;jettySize=auto;html=1;exitX=0.5;exitY=1;exitDx=0;exitDy=0;entryX=0.513;entryY=0.222;entryDx=0;entryDy=0;entryPerimeter=0;strokeColor=#ff0000;align=left;verticalAlign=bottom;fontFamily=Helvetica;fontSize=11;fontColor=default;labelBackgroundColor=default;endArrow=open;endSize=8;" edge="1" parent="1" source="e4tIsMRB3juKGLobp1ze-110" target="e4tIsMRB3juKGLobp1ze-122">
          <mxGeometry relative="1" as="geometry" />
        </mxCell>
        <mxCell id="e4tIsMRB3juKGLobp1ze-125" style="edgeStyle=orthogonalEdgeStyle;rounded=0;orthogonalLoop=1;jettySize=auto;html=1;exitX=0.5;exitY=1;exitDx=0;exitDy=0;entryX=0.995;entryY=0.194;entryDx=0;entryDy=0;entryPerimeter=0;strokeColor=#ff0000;align=left;verticalAlign=bottom;fontFamily=Helvetica;fontSize=11;fontColor=default;labelBackgroundColor=default;endArrow=open;endSize=8;" edge="1" parent="1" source="e4tIsMRB3juKGLobp1ze-111" target="e4tIsMRB3juKGLobp1ze-122">
          <mxGeometry relative="1" as="geometry">
            <Array as="points">
              <mxPoint x="755.5" y="1950" />
              <mxPoint x="755.5" y="1980" />
              <mxPoint x="755.5" y="1980" />
            </Array>
          </mxGeometry>
        </mxCell>
        <mxCell id="e4tIsMRB3juKGLobp1ze-126" value="Diagrama de Actividades&lt;div&gt;Registro de Venta&lt;/div&gt;&lt;div&gt;Sistema Punto de Venta LiebreShop&lt;/div&gt;" style="text;html=1;align=center;verticalAlign=middle;whiteSpace=wrap;rounded=0;fontStyle=1" vertex="1" parent="1">
          <mxGeometry x="517.5" y="1150" width="215" height="30" as="geometry" />
        </mxCell>
        <mxCell id="e4tIsMRB3juKGLobp1ze-129" style="edgeStyle=orthogonalEdgeStyle;rounded=0;orthogonalLoop=1;jettySize=auto;html=1;exitX=0.5;exitY=1;exitDx=0;exitDy=0;entryX=0.5;entryY=0;entryDx=0;entryDy=0;strokeColor=#ff0000;align=center;verticalAlign=bottom;fontFamily=Helvetica;fontSize=11;fontColor=default;labelBackgroundColor=default;endArrow=open;endSize=8;" edge="1" parent="1" source="e4tIsMRB3juKGLobp1ze-127" target="e4tIsMRB3juKGLobp1ze-128">
          <mxGeometry relative="1" as="geometry" />
        </mxCell>
        <mxCell id="e4tIsMRB3juKGLobp1ze-127" value="Administrador autoriza devolución" style="rounded=1;whiteSpace=wrap;html=1;arcSize=40;fontColor=#000000;fillColor=#ffffc0;strokeColor=#ff0000;" vertex="1" parent="1">
          <mxGeometry x="542.5" y="1650" width="120" height="40" as="geometry" />
        </mxCell>
        <mxCell id="e4tIsMRB3juKGLobp1ze-128" value="Devolución de dinero a Cliente" style="rounded=1;whiteSpace=wrap;html=1;arcSize=40;fontColor=#000000;fillColor=#ffffc0;strokeColor=#ff0000;" vertex="1" parent="1">
          <mxGeometry x="542.5" y="1730" width="120" height="40" as="geometry" />
        </mxCell>
        <mxCell id="e4tIsMRB3juKGLobp1ze-130" style="edgeStyle=orthogonalEdgeStyle;rounded=0;orthogonalLoop=1;jettySize=auto;html=1;exitX=0.5;exitY=1;exitDx=0;exitDy=0;entryX=0.502;entryY=0.383;entryDx=0;entryDy=0;entryPerimeter=0;strokeColor=#ff0000;align=center;verticalAlign=bottom;fontFamily=Helvetica;fontSize=11;fontColor=default;labelBackgroundColor=default;endArrow=open;endSize=8;" edge="1" parent="1" source="e4tIsMRB3juKGLobp1ze-128" target="e4tIsMRB3juKGLobp1ze-118">
          <mxGeometry relative="1" as="geometry" />
        </mxCell>
      </root>
    </mxGraphModel>
  </diagram>
</mxfile>
